<svg width="1586" height="1129" viewBox="0 0 1586 1129" fill="none" xmlns="http://www.w3.org/2000/svg">
<path d="M530.813 826.271H496.854C492.942 826.271 489.283 816.87 487.144 801.378L451.823 545.374C449.684 529.806 446.025 520.481 442.113 520.481H418.053C411.638 520.481 406.443 545.148 406.443 575.607V771.22C406.443 801.679 401.248 826.346 394.833 826.346H372.61C366.195 826.346 361 801.679 361 771.22V81.1978C361 50.7391 366.195 26.0713 372.61 26.0713H492.577C534.266 26.0713 555 120.907 555 273.878C555 391.05 543.722 477.763 517.382 508.748C512.234 514.765 510.064 543.87 513.2 564.176L540.174 738.58C545.813 774.98 540.333 826.346 530.813 826.346V826.271ZM406.443 269.666C406.443 300.125 411.638 324.793 418.053 324.793H492.577C500.814 324.793 506.817 307.044 506.817 266.733C506.817 231.16 500.83 214.539 492.34 214.539H418.053C411.638 214.539 406.443 239.207 406.443 269.666Z" fill="#1D3DEA"/>
<path d="M675.5 852.418C616.246 852.418 567 697.111 567 425.607C567 154.103 616.246 0 675.5 0C734.754 0 784 155.306 784 425.607C784 695.908 734.754 852.418 675.5 852.418ZM675.5 190.88C635.247 190.88 614.755 283.387 614.755 425.607C614.755 567.827 635.263 660.334 675.5 660.334C715.737 660.334 736.499 569.031 736.499 425.607C736.499 282.184 715.991 190.88 675.5 190.88Z" fill="#1D3DEA"/>
<path d="M859.037 610.578H955.393C961.806 610.578 967 635.246 967 665.705V771.22C967 801.679 961.806 826.346 955.393 826.346H813.607C807.194 826.346 802 801.679 802 771.22V81.1978C802 50.7391 807.194 26.0713 813.607 26.0713H835.823C842.237 26.0713 847.43 50.7391 847.43 81.1978V555.376C847.43 585.835 852.624 610.503 859.037 610.503V610.578Z" fill="#1D3DEA"/>
<path d="M1167.36 826.346H1140.12C1135.44 826.346 1131.22 813.034 1129.41 792.5L1121.89 707.283C1120.08 686.75 1115.85 673.437 1111.18 673.437H1042.89C1038.27 673.437 1034.09 686.449 1032.25 706.606L1024.33 793.177C1022.49 813.335 1018.31 826.346 1013.69 826.346H990.628C982.187 826.346 976.565 784.979 980.049 748.425L1045.92 58.4132C1047.8 38.7072 1051.93 26.0713 1056.5 26.0713H1099.78C1104.29 26.0713 1108.39 38.4816 1110.31 57.962L1177.9 747.974C1181.48 784.528 1175.86 826.346 1167.37 826.346H1167.36ZM1064.05 495.556H1090.96C1096.29 495.556 1099.92 469.758 1097.88 446.366L1084.56 294.058C1082.01 264.95 1073.33 264.8 1070.75 293.833L1057.16 446.141C1055.07 469.607 1058.7 495.556 1064.05 495.556Z" fill="#1D3DEA"/>
<path d="M1238.44 576.741V772.354C1238.44 802.812 1233.25 827.48 1226.83 827.48H1204.61C1198.2 827.48 1193 802.812 1193 772.354V82.3316C1193 51.8729 1198.2 27.2051 1204.61 27.2051H1324.58C1366.27 27.2051 1387 122.041 1387 275.011C1387 427.982 1365.78 521.614 1322.83 521.614H1250.05C1243.64 521.614 1238.44 546.282 1238.44 576.741ZM1238.44 270.875C1238.44 301.334 1243.64 326.002 1250.05 326.002H1324.58C1332.81 326.002 1338.82 308.253 1338.82 267.942C1338.82 232.369 1332.83 215.748 1324.34 215.748H1250.05C1243.64 215.748 1238.44 240.416 1238.44 270.875Z" fill="#1D3DEA"/>
<path d="M1542.69 249.218C1538.96 249.896 1535.25 242.967 1532.9 229.184C1525.32 184.522 1511.32 174.505 1494.25 174.505C1464.76 174.505 1449.01 200.64 1449.01 256.448C1449.01 325.286 1463.5 326.492 1480.5 326.492C1488.75 326.492 1497 325.286 1512.75 325.286C1562.75 325.286 1586 381.095 1586 544.906C1586 734.851 1559.01 852.418 1492.26 852.418C1459.25 852.418 1442.76 839.388 1430.5 812.049C1414.02 772.433 1404.16 730.708 1399.51 658.105C1397.24 622.556 1402.79 586.48 1410.63 586.48H1439.73C1443.51 586.48 1446.95 595.442 1449.2 609.827C1456.43 655.92 1478.63 671.963 1495.75 671.963C1518.25 671.963 1538.25 645.828 1538.25 576.99C1538.25 503.407 1502.5 521.181 1468.01 515.232C1437 509.282 1400.51 483.147 1400.51 259.988C1400.51 102.052 1425.27 0 1494 0C1541.93 0 1565.75 55.5826 1576.33 166.823C1579.72 202.598 1574.44 243.419 1566.18 244.925L1542.67 249.218H1542.69Z" fill="#1D3DEA"/>
<path d="M280.496 29.4717H160.374C153.951 29.4717 148.749 54.1497 148.749 84.6211V276.779C148.749 305.294 143.88 328.392 137.869 328.392H62.5035C20.7605 328.392 0 423.267 0 576.301C0 729.336 21.2521 823.007 64.2481 823.007H137.124C143.547 823.007 148.749 847.685 148.749 878.156V1073.85C148.749 1104.32 153.951 1129 160.374 1129H182.626C189.049 1129 194.251 1104.32 194.251 1073.85V878.156C194.251 847.685 199.453 823.007 205.876 823.007H247.127C253.551 823.007 258.753 798.329 258.753 767.857V682.462C258.753 651.991 253.551 627.313 247.127 627.313H205.131C199.12 627.313 194.251 604.215 194.251 575.7C194.251 547.184 199.12 524.086 205.131 524.086H278.752C321.748 524.086 343 430.415 343 277.381C343 124.347 322.255 29.4717 280.496 29.4717ZM62.5035 627.162C54.2564 627.162 48.2455 609.406 48.2455 569.079C48.2455 533.491 54.2405 516.863 62.7414 516.863H137.124C143.547 516.863 148.749 541.542 148.749 572.013C148.749 602.484 143.547 627.162 137.124 627.162H62.5035ZM280.496 328.317H205.115C199.104 328.317 194.235 305.219 194.235 276.704V273.168C194.235 242.696 199.437 218.018 205.86 218.018H280.243C288.744 218.018 294.739 234.646 294.739 270.233C294.739 310.561 288.744 328.317 280.481 328.317H280.496Z" fill="#1D3DEA"/>
</svg>
